HIERARCHY
ROOT Hips
{
    OFFSET 0.000000 0.000000 0.000000
    CHANNELS 6 Xposition Yposition Zposition Zrotation Yrotation Xrotation
    JOINT Chest
    {
        OFFSET 0.000000 1.634758 -0.000000
        CHANNELS 3 Zrotation Yrotation Xrotation
        JOINT Chest2
        {
            OFFSET 0.000000 2.197341 0.000000
            CHANNELS 3 Zrotation Yrotation Xrotation
            JOINT Neck
            {
                OFFSET 0.000000 0.961544 0.000000
                CHANNELS 3 Zrotation Yrotation Xrotation
                JOINT Head
                {
                    OFFSET 0.000000 0.632542 -0.032565
                    CHANNELS 3 Zrotation Yrotation Xrotation
                    End Site
                    {
                        OFFSET -0.000001 0.439502 2.922845
                    }
                }
            }
            JOINT LeftCollar
            {
                OFFSET 0.167536 0.778237 -0.168280
                CHANNELS 3 Zrotation Yrotation Xrotation
                JOINT LeftShoulder
                {
                    OFFSET 0.831514 -0.002900 0.006458
                    CHANNELS 3 Zrotation Yrotation Xrotation
                    JOINT LeftElbow
                    {
                        OFFSET 2.272872 -0.026639 0.059314
                        CHANNELS 3 Zrotation Yrotation Xrotation
                        JOINT LeftWrist
                        {
                            OFFSET 2.081982 -0.024402 0.054333
                            CHANNELS 3 Zrotation Yrotation Xrotation
                            JOINT LeftHandThumb1
                            {
                                OFFSET 0.218903 -0.128645 0.283837
                                CHANNELS 3 Zrotation Yrotation Xrotation
                                JOINT LeftHandThumb2
                                {
                                    OFFSET 0.137157 -0.025101 0.077902
                                    CHANNELS 3 Zrotation Yrotation Xrotation
                                    JOINT LeftHandThumb3
                                    {
                                        OFFSET 0.179476 -0.016590 -0.032443
                                        CHANNELS 3 Zrotation Yrotation Xrotation
                                        End Site
                                        {
                                            OFFSET 0.253883 0.078641 0.034574
                                        }
                                    }
                                }
                            }
                            JOINT LeftHandFore1
                            {
                                OFFSET 0.767340 -0.016076 0.196678
                                CHANNELS 3 Zrotation Yrotation Xrotation
                                JOINT LeftHandFore2
                                {
                                    OFFSET 0.157397 -0.148744 0.009828
                                    CHANNELS 3 Zrotation Yrotation Xrotation
                                    JOINT LeftHandFore3
                                    {
                                        OFFSET -0.124998 -0.032773 -0.008021
                                        CHANNELS 3 Zrotation Yrotation Xrotation
                                        End Site
                                        {
                                            OFFSET -0.151567 0.119899 -0.004298
                                        }
                                    }
                                }
                            }
                            JOINT LeftHandMiddle1
                            {
                                OFFSET 0.709887 -0.008320 0.018526
                                CHANNELS 3 Zrotation Yrotation Xrotation
                                JOINT LeftHandMiddle2
                                {
                                    OFFSET 0.075372 -0.233007 0.009507
                                    CHANNELS 3 Zrotation Yrotation Xrotation
                                    JOINT LeftHandMiddle3
                                    {
                                        OFFSET -0.143120 -0.029991 0.000522
                                        CHANNELS 3 Zrotation Yrotation Xrotation
                                        End Site
                                        {
                                            OFFSET -0.136463 0.192333 -0.004016
                                        }
                                    }
                                }
                            }
                            JOINT LeftHandRing1
                            {
                                OFFSET 0.743817 -0.005823 -0.153668
                                CHANNELS 3 Zrotation Yrotation Xrotation
                                JOINT LeftHandRing2
                                {
                                    OFFSET 0.001667 -0.352614 0.019841
                                    CHANNELS 3 Zrotation Yrotation Xrotation
                                    JOINT LeftHandRing3
                                    {
                                        OFFSET -0.131382 -0.035009 0.010889
                                        CHANNELS 3 Zrotation Yrotation Xrotation
                                        End Site
                                        {
                                            OFFSET -0.058500 0.104739 -0.005215
                                        }
                                    }
                                }
                            }
                            JOINT LeftHandLittle1
                            {
                                OFFSET 0.689408 -0.053302 -0.308304
                                CHANNELS 3 Zrotation Yrotation Xrotation
                                JOINT LeftHandLittle2
                                {
                                    OFFSET -0.024854 -0.193474 0.002058
                                    CHANNELS 3 Zrotation Yrotation Xrotation
                                    JOINT LeftHandLittle3
                                    {
                                        OFFSET -0.119560 -0.007710 -0.011929
                                        CHANNELS 3 Zrotation Yrotation Xrotation
                                        End Site
                                        {
                                            OFFSET -0.120473 0.145456 -0.024846
                                        }
                                    }
                                }
                            }
                        }
                    }
                }
            }
            JOINT RightCollar
            {
                OFFSET -0.167536 0.778237 -0.168280
                CHANNELS 3 Zrotation Yrotation Xrotation
                JOINT RightShoulder
                {
                    OFFSET -0.831514 -0.002900 0.006457
                    CHANNELS 3 Zrotation Yrotation Xrotation
                    JOINT RightElbow
                    {
                        OFFSET -2.272872 -0.026639 0.059313
                        CHANNELS 3 Zrotation Yrotation Xrotation
                        JOINT RightWrist
                        {
                            OFFSET -2.081982 -0.024402 0.054331
                            CHANNELS 3 Zrotation Yrotation Xrotation
                            JOINT RightHandThumb1
                            {
                                OFFSET -0.218911 -0.128571 0.283837
                                CHANNELS 3 Zrotation Yrotation Xrotation
                                JOINT RightHandThumb2
                                {
                                    OFFSET -0.137157 -0.025101 0.077902
                                    CHANNELS 3 Zrotation Yrotation Xrotation
                                    JOINT RightHandThumb3
                                    {
                                        OFFSET -0.111903 -0.136876 0.047771
                                        CHANNELS 3 Zrotation Yrotation Xrotation
                                        End Site
                                        {
                                            OFFSET -0.127449 -0.146557 0.184701
                                        }
                                    }
                                }
                            }
                            JOINT RightHandFore1
                            {
                                OFFSET -0.767344 -0.015991 0.196679
                                CHANNELS 3 Zrotation Yrotation Xrotation
                                JOINT RightHandFore2
                                {
                                    OFFSET -0.157433 -0.148711 0.009838
                                    CHANNELS 3 Zrotation Yrotation Xrotation
                                    JOINT RightHandFore3
                                    {
                                        OFFSET 0.122706 -0.031613 -0.026567
                                        CHANNELS 3 Zrotation Yrotation Xrotation
                                        End Site
                                        {
                                            OFFSET 0.149969 0.120724 -0.017373
                                        }
                                    }
                                }
                            }
                            JOINT RightHandMiddle1
                            {
                                OFFSET -0.709887 -0.008302 0.018525
                                CHANNELS 3 Zrotation Yrotation Xrotation
                                JOINT RightHandMiddle2
                                {
                                    OFFSET -0.075348 -0.233011 0.009507
                                    CHANNELS 3 Zrotation Yrotation Xrotation
                                    JOINT RightHandMiddle3
                                    {
                                        OFFSET 0.142681 -0.030282 -0.010470
                                        CHANNELS 3 Zrotation Yrotation Xrotation
                                        End Site
                                        {
                                            OFFSET 0.135910 0.191954 -0.017681
                                        }
                                    }
                                }
                            }
                            JOINT RightHandRing1
                            {
                                OFFSET -0.743819 -0.005785 -0.153669
                                CHANNELS 3 Zrotation Yrotation Xrotation
                                JOINT RightHandRing2
                                {
                                    OFFSET -0.001692 -0.352614 0.019841
                                    CHANNELS 3 Zrotation Yrotation Xrotation
                                    JOINT RightHandRing3
                                    {
                                        OFFSET 0.131552 -0.035820 -0.003989
                                        CHANNELS 3 Zrotation Yrotation Xrotation
                                        End Site
                                        {
                                            OFFSET 0.058480 0.104749 -0.005286
                                        }
                                    }
                                }
                            }
                            JOINT RightHandLittle1
                            {
                                OFFSET -0.689403 -0.053298 -0.308303
                                CHANNELS 3 Zrotation Yrotation Xrotation
                                JOINT RightHandLittle2
                                {
                                    OFFSET 0.024848 -0.193478 0.002057
                                    CHANNELS 3 Zrotation Yrotation Xrotation
                                    JOINT RightHandLittle3
                                    {
                                        OFFSET 0.119912 -0.007457 0.007817
                                        CHANNELS 3 Zrotation Yrotation Xrotation
                                        End Site
                                        {
                                            OFFSET 0.121194 0.146016 0.016731
                                        }
                                    }
                                }
                            }
                        }
                    }
                }
            }
        }
    }
    JOINT LeftHip
    {
        OFFSET 0.685143 0.673822 -0.044491
        CHANNELS 3 Zrotation Yrotation Xrotation
        JOINT LeftKnee
        {
            OFFSET 0.085364 -3.750208 0.017676
            CHANNELS 3 Zrotation Yrotation Xrotation
            JOINT LeftAnkle
            {
                OFFSET 0.094583 -4.155206 0.019585
                CHANNELS 3 Zrotation Yrotation Xrotation
                JOINT LeftToe
                {
                    OFFSET -0.000000 -0.395925 0.621478
                    CHANNELS 3 Zrotation Yrotation Xrotation
                    End Site
                    {
                        OFFSET -0.000000 -0.077878 0.321152
                    }
                }
            }
        }
    }
    JOINT RightHip
    {
        OFFSET -0.685143 0.673822 -0.044492
        CHANNELS 3 Zrotation Yrotation Xrotation
        JOINT RightKnee
        {
            OFFSET -0.085364 -3.750208 0.017677
            CHANNELS 3 Zrotation Yrotation Xrotation
            JOINT RightAnkle
            {
                OFFSET -0.094583 -4.155206 0.019585
                CHANNELS 3 Zrotation Yrotation Xrotation
                JOINT RightToe
                {
                    OFFSET -0.000000 -0.395925 0.621478
                    CHANNELS 3 Zrotation Yrotation Xrotation
                    End Site
                    {
                        OFFSET -0.000000 -0.077878 0.321152
                    }
                }
            }
        }
    }
}
MOTION
Frames: 7
Frame Time: 0.033333
0.019139 8.486443 0.706702 -0.000022 0.000076 -14.323976 -0.000008 -0.000073 7.314439 0.000007 0.000010 -3.645232 0.000004 -0.000023 8.801278 0.000009 -0.000030 18.980955 -13.993299 1.182742 0.004130 -56.292107 12.851311 -0.225502 0.038133 -19.166716 -0.233167 -18.133934 -0.295883 3.338365 -0.000002 -0.000002 0.000001 0.000005 -0.000000 -0.000003 -0.000001 0.000002 0.000008 0.000003 -0.000000 -0.000000 -0.000004 -0.000002 0.000001 -0.000000 -0.000002 -0.000001 -0.000002 0.000002 0.000000 0.000002 -0.000000 0.000000 0.000000 0.000002 -0.000000 -0.000000 -0.000000 -0.000000 0.000002 -0.000002 0.000001 -0.000004 0.000003 0.000000 -0.000000 -0.000002 0.000000 -0.000001 -0.000002 0.000002 -0.000003 -0.000000 -0.000001 14.032296 -1.011834 0.003514 56.298828 -11.635699 -0.063567 -0.032644 17.815653 -0.215594 18.019175 0.444689 3.065925 0.000001 0.000002 0.000001 0.000000 -0.000002 -0.000002 -0.000006 -0.000002 0.000001 -0.000006 -0.000000 0.000001 0.000006 -0.000000 -0.000000 0.000005 -0.000003 -0.000001 -0.000000 -0.000000 0.000000 -0.000001 0.000002 -0.000000 -0.000001 -0.000002 -0.000001 0.000000 -0.000002 0.000001 -0.000000 -0.000000 0.000000 0.000001 -0.000000 -0.000002 -0.000000 -0.000000 0.000000 0.000001 -0.000000 0.000001 0.000003 -0.000002 0.000001 -8.438014 -5.224242 34.066326 0.005288 0.117295 5.159999 7.086627 12.456363 -13.073775 -0.000000 -0.000000 -0.000005 5.158914 2.652441 10.008171 -0.014578 -0.194481 8.575919 -3.980739 -5.744121 -7.440125 -0.000083 -0.000356 -0.556109
0.019139 8.486438 0.706702 -0.000022 0.000076 -14.323976 -0.000451 -0.000127 7.314450 -0.000430 0.000046 -3.645221 0.000012 -0.000009 8.804201 0.000001 0.000122 18.986431 -13.993127 1.182685 0.004147 -56.291393 12.852681 -0.225100 0.038137 -19.169544 -0.233203 -18.133280 -0.295888 3.338147 -0.000007 -0.000002 0.000004 0.000003 -0.000002 -0.000000 0.000002 -0.000002 0.000006 0.000018 -0.000000 0.000005 -0.000006 -0.000002 0.000001 -0.000000 0.000002 -0.000000 0.000007 0.000005 0.000003 0.000002 -0.000000 0.000001 0.000004 0.000002 -0.000001 0.000001 0.000003 0.000004 -0.000001 0.000002 -0.000000 -0.000007 -0.000000 0.000001 0.000001 -0.000000 0.000004 -0.000002 -0.000000 0.000002 -0.000004 0.000003 -0.000000 14.032408 -1.011878 0.003500 56.299026 -11.633790 -0.063275 -0.032630 17.811789 -0.215543 18.018478 0.444689 3.065757 0.000001 0.000005 -0.000009 -0.000003 -0.000003 -0.000001 -0.000002 -0.000000 0.000001 -0.000009 0.000002 0.000003 0.000006 0.000002 0.000001 0.000004 0.000002 -0.000003 -0.000011 -0.000002 0.000001 -0.000001 -0.000005 0.000000 -0.000001 0.000002 0.000000 -0.000000 -0.000000 0.000001 0.000002 0.000002 0.000000 -0.000002 -0.000000 0.000001 -0.000001 -0.000002 0.000002 0.000001 0.000002 0.000000 0.000007 -0.000005 0.000000 -8.437999 -5.224155 34.069134 0.005278 0.117189 5.155332 7.087073 12.456161 -13.071875 0.000000 0.000001 -0.000003 5.159039 2.652106 10.004240 -0.014604 -0.194650 8.583434 -3.980614 -5.743923 -7.443766 -0.000083 -0.000355 -0.554484
0.019139 8.486423 0.706702 -0.000022 0.000076 -14.323976 -0.001771 -0.000286 7.314477 -0.001731 0.000154 -3.645197 0.000036 0.000034 8.812705 -0.000022 0.000576 19.002405 -13.992631 1.182516 0.004195 -56.289249 12.857258 -0.223945 0.038177 -19.179024 -0.233326 -18.131306 -0.295895 3.337496 -0.000004 -0.000003 0.000006 0.000002 0.000002 -0.000003 -0.000001 -0.000003 0.000005 0.000004 -0.000007 0.000004 -0.000001 0.000002 0.000001 0.000001 0.000002 -0.000001 0.000007 0.000003 0.000002 0.000001 0.000002 0.000000 -0.000000 -0.000002 -0.000001 0.000007 -0.000002 0.000003 0.000000 -0.000003 0.000001 -0.000003 -0.000002 0.000001 0.000007 -0.000007 0.000003 -0.000001 -0.000000 0.000001 -0.000004 -0.000002 -0.000002 14.032736 -1.012011 0.003455 56.299637 -11.628522 -0.062393 -0.032592 17.801157 -0.215405 18.016405 0.444704 3.065260 -0.000006 0.000002 -0.000001 -0.000001 -0.000002 -0.000001 -0.000003 0.000002 0.000002 -0.000010 0.000005 -0.000000 0.000006 0.000003 0.000001 0.000001 -0.000002 -0.000003 0.000001 0.000002 0.000000 -0.000000 -0.000002 -0.000001 0.000000 0.000002 -0.000000 0.000007 -0.000003 -0.000001 0.000002 -0.000000 0.000001 -0.000002 -0.000005 -0.000001 0.000007 0.000002 -0.000000 0.000000 -0.000000 0.000000 0.000004 -0.000002 0.000001 -8.437964 -5.223911 34.077415 0.005250 0.116877 5.141572 7.088389 12.455586 -13.066296 -0.000000 -0.000001 0.000001 5.159409 2.651102 9.992906 -0.014678 -0.195138 8.605111 -3.980278 -5.743319 -7.454269 -0.000082 -0.000352 -0.549969
0.019139 8.486397 0.706702 -0.000022 0.000076 -14.323976 -0.003953 -0.000551 7.314522 -0.003883 0.000332 -3.645153 0.000076 0.000107 8.826378 -0.000061 0.001331 19.028090 -13.991787 1.182232 0.004273 -56.285759 12.864669 -0.222009 0.038246 -19.194366 -0.233530 -18.128056 -0.295914 3.336421 -0.000002 -0.000002 0.000010 0.000005 -0.000000 -0.000005 -0.000000 0.000003 0.000005 0.000012 -0.000003 -0.000001 -0.000005 0.000002 0.000002 0.000002 -0.000000 -0.000001 0.000009 0.000005 0.000003 -0.000001 -0.000000 -0.000001 0.000000 -0.000002 0.000000 0.000007 0.000002 0.000002 0.000000 0.000002 -0.000000 -0.000003 -0.000002 0.000001 0.000007 -0.000000 0.000002 -0.000001 0.000002 0.000001 -0.000002 0.000002 -0.000002 14.033353 -1.012245 0.003380 56.300575 -11.619643 -0.060916 -0.032519 17.783262 -0.215174 18.012966 0.444735 3.064437 0.000003 0.000007 -0.000018 -0.000007 -0.000003 -0.000001 -0.000002 -0.000000 0.000000 0.000009 0.000002 -0.000003 0.000003 -0.000000 -0.000001 0.000001 -0.000003 -0.000003 0.000008 -0.000003 -0.000000 0.000000 -0.000000 -0.000000 0.000002 -0.000000 -0.000001 0.000007 -0.000003 -0.000001 -0.000001 -0.000002 0.000001 0.000001 -0.000002 -0.000001 0.000006 -0.000002 -0.000001 0.000001 -0.000002 -0.000001 0.000006 -0.000003 0.000000 -8.437881 -5.223471 34.091045 0.005204 0.116365 5.118942 7.090553 12.454598 -13.057119 0.000000 0.000001 -0.000002 5.160023 2.649440 9.973913 -0.014801 -0.195956 8.641419 -3.979704 -5.742324 -7.471862 -0.000081 -0.000349 -0.542358
0.019139 8.486362 0.706702 -0.000022 0.000076 -14.323976 -0.006983 -0.000918 7.314585 -0.006871 0.000580 -3.645093 0.000132 0.000211 8.844829 -0.000116 0.002384 19.062754 -13.990563 1.181828 0.004385 -56.280952 12.874978 -0.219337 0.038334 -19.215712 -0.233810 -18.123537 -0.295945 3.334929 -0.000004 -0.000003 -0.000009 0.000002 -0.000002 -0.000005 -0.000000 0.000002 0.000006 0.000014 -0.000005 0.000004 -0.000005 -0.000002 0.000000 0.000002 0.000002 0.000000 0.000006 -0.000002 0.000001 0.000001 0.000003 -0.000000 -0.000001 -0.000002 -0.000001 0.000007 -0.000002 0.000001 -0.000000 -0.000000 -0.000000 -0.000003 0.000002 0.000001 0.000008 -0.000009 0.000001 -0.000002 0.000003 0.000001 -0.000000 0.000002 -0.000001 14.034126 -1.012554 0.003278 56.301968 -11.607237 -0.058899 -0.032416 17.758238 -0.214852 18.008198 0.444773 3.063295 -0.000003 -0.000005 -0.000007 -0.000004 0.000002 -0.000001 -0.000000 -0.000000 0.000001 -0.000006 0.000003 0.000003 0.000003 -0.000000 0.000001 0.000004 -0.000003 -0.000003 0.000001 -0.000000 -0.000001 0.000001 -0.000002 -0.000001 -0.000004 -0.000000 0.000000 0.000000 -0.000002 -0.000001 -0.000001 -0.000003 0.000001 0.000001 -0.000002 -0.000001 -0.000000 0.000005 0.000001 0.000001 -0.000003 -0.000001 0.000003 -0.000000 0.000001 -8.437799 -5.222902 34.109581 0.005142 0.115670 5.088280 7.093475 12.453305 -13.044765 0.000000 0.000001 -0.000008 5.160879 2.647123 9.947585 -0.014974 -0.197088 8.691770 -3.978916 -5.740934 -7.496255 -0.000079 -0.000341 -0.531717
0.019139 8.486317 0.706702 -0.000022 0.000076 -14.323976 -0.010846 -0.001386 7.314666 -0.010680 0.000896 -3.645005 0.000205 0.000349 8.867637 -0.000185 0.003738 19.105639 -13.989043 1.181319 0.004515 -56.274780 12.887982 -0.215928 0.038455 -19.242624 -0.234162 -18.117779 -0.295977 3.333026 -0.000007 0.000003 0.000002 0.000007 -0.000002 -0.000001 0.000001 -0.000002 0.000004 0.000011 0.000002 0.000004 -0.000004 -0.000002 -0.000001 0.000003 0.000003 0.000000 0.000016 0.000005 0.000002 0.000001 -0.000000 -0.000000 -0.000000 0.000003 -0.000000 0.000020 0.000003 0.000002 0.000002 0.000002 0.000000 -0.000004 -0.000002 -0.000001 0.000008 -0.000002 0.000003 -0.000002 -0.000000 0.000001 -0.000000 0.000002 0.000000 14.035143 -1.012950 0.003138 56.303734 -11.591482 -0.056317 -0.032297 17.726473 -0.214441 18.002119 0.444817 3.061841 -0.000006 0.000003 -0.000004 -0.000001 -0.000005 -0.000002 -0.000000 0.000003 -0.000001 0.000003 0.000009 0.000001 0.000006 -0.000002 0.000001 0.000002 -0.000000 -0.000001 -0.000001 0.000002 0.000001 0.000000 -0.000000 -0.000000 -0.000003 -0.000002 0.000002 -0.000001 0.000007 0.000000 -0.000001 -0.000000 0.000000 0.000001 -0.000002 -0.000001 0.000000 0.000003 0.000001 -0.000000 0.000003 0.000000 0.000005 -0.000002 0.000000 -8.437657 -5.222132 34.134396 0.005059 0.114732 5.046919 7.097438 12.451518 -13.027902 -0.000001 -0.000001 -0.000003 5.161965 2.644133 9.914506 -0.015193 -0.198511 8.755028 -3.977965 -5.739117 -7.526921 -0.000078 -0.000333 -0.518305
0.019139 8.486261 0.706702 -0.000022 0.000076 -14.323976 -0.015529 -0.001953 7.314764 -0.015297 0.001279 -3.644900 0.000294 0.000524 8.894420 -0.000270 0.005393 19.155973 -13.987193 1.180700 0.004683 -56.267296 12.903915 -0.211796 0.038594 -19.275627 -0.234595 -18.110800 -0.296015 3.330720 -0.000005 -0.000002 0.000008 0.000004 0.000003 -0.000002 -0.000002 -0.000002 0.000007 -0.000000 -0.000005 0.000002 -0.000003 -0.000000 -0.000002 0.000001 -0.000003 0.000000 0.000001 -0.000002 0.000003 0.000001 -0.000002 0.000000 0.000001 0.000005 -0.000000 0.000007 -0.000003 0.000003 0.000001 0.000003 -0.000000 -0.000005 -0.000000 0.000000 0.000008 -0.000005 0.000001 -0.000001 0.000002 0.000001 -0.000001 0.000002 -0.000003 14.036370 -1.013431 0.002978 56.305851 -11.572296 -0.053197 -0.032142 17.687792 -0.213943 17.994757 0.444875 3.060076 0.000008 0.000003 -0.000006 -0.000005 -0.000002 0.000000 -0.000002 -0.000000 -0.000001 0.000006 -0.000000 -0.000002 0.000005 -0.000000 0.000001 0.000003 -0.000002 -0.000001 0.000018 -0.000002 -0.000001 -0.000000 0.000002 0.000000 -0.000002 -0.000005 0.000001 0.000013 -0.000002 0.000000 0.000000 -0.000002 -0.000001 -0.000002 -0.000002 -0.000001 0.000007 0.000002 0.000001 -0.000000 0.000002 -0.000001 0.000006 -0.000005 0.000001 -8.437508 -5.221227 34.163841 0.004961 0.113623 4.998004 7.102114 12.449430 -13.008062 0.000001 0.000002 0.000003 5.163289 2.640499 9.874490 -0.015459 -0.200233 8.831564 -3.976830 -5.736907 -7.564023 -0.000076 -0.000323 -0.502013
